HIERARCHY
ROOT Hips
{
	OFFSET 0.000000 89.005402 0.000000
	CHANNELS 6 Xposition Yposition Zposition Xrotation Yrotation Zrotation
	JOINT Spine
	{
		OFFSET 0.116900 10.681000 0.373400
		CHANNELS 3 Xrotation Yrotation Zrotation
		JOINT Spine1
		{
			OFFSET 0.000000 13.840401 0.053500
			CHANNELS 3 Xrotation Yrotation Zrotation
			JOINT Spine2
			{
				OFFSET 0.000000 14.712700 -0.366200
				CHANNELS 3 Xrotation Yrotation Zrotation
				JOINT Neck
				{
					OFFSET 0.000000 35.415497 -3.314200
					CHANNELS 3 Xrotation Yrotation Zrotation
					JOINT Head
					{
						OFFSET 0.000000 16.899200 1.218300
						CHANNELS 3 Xrotation Yrotation Zrotation
						JOINT HeadTop_End
						{
							OFFSET 0.000000 22.206207 2.192500
							CHANNELS 3 Xrotation Yrotation Zrotation
							End Site
							{
								OFFSET 0.000000 22.314178 0.000000
							}
						}
					}
				}
				JOINT LeftShoulder
				{
					OFFSET 12.896400 26.716293 -4.548400
					CHANNELS 3 Xrotation Yrotation Zrotation
					JOINT LeftArm
					{
						OFFSET 19.027000 -4.857010 -1.718400
						CHANNELS 3 Xrotation Yrotation Zrotation
						JOINT LeftForeArm
						{
							OFFSET 24.179897 0.000000 0.000000
							CHANNELS 3 Xrotation Yrotation Zrotation
							JOINT LeftHand
							{
								OFFSET 27.156403 0.000000 0.000000
								CHANNELS 3 Xrotation Yrotation Zrotation
								JOINT LeftHandIndex1
								{
									OFFSET 16.441200 0.000000 0.000000
									CHANNELS 3 Xrotation Yrotation Zrotation
									JOINT LeftHandIndex2
									{
										OFFSET 4.821899 0.000000 0.000000
										CHANNELS 3 Xrotation Yrotation Zrotation
										JOINT LeftHandIndex3
										{
											OFFSET 6.386497 0.000000 0.000000
											CHANNELS 3 Xrotation Yrotation Zrotation
											JOINT LeftHandIndex4
											{
												OFFSET 5.188988 0.000000 0.000000
												CHANNELS 3 Xrotation Yrotation Zrotation
												End Site
												{
													OFFSET -0.178703 5.185913 0.000177
												}
											}
										}
									}
								}
								JOINT LeftHandThumb1
								{
									OFFSET 6.534897 -5.032593 5.900300
									CHANNELS 3 Xrotation Yrotation Zrotation
									JOINT LeftHandThumb2
									{
										OFFSET 3.818176 -2.204422 2.204423
										CHANNELS 3 Xrotation Yrotation Zrotation
										JOINT LeftHandThumb3
										{
											OFFSET 3.252098 -1.877594 1.877601
											CHANNELS 3 Xrotation Yrotation Zrotation
											JOINT LeftHandThumb4
											{
												OFFSET 5.251778 -3.032120 3.032117
												CHANNELS 3 Xrotation Yrotation Zrotation
												End Site
												{
													OFFSET 0.000023 6.780014 0.000000
												}
											}
										}
									}
								}
							}
						}
					}
				}
				JOINT RightShoulder
				{
					OFFSET -12.896300 26.716293 -4.548400
					CHANNELS 3 Xrotation Yrotation Zrotation
					JOINT RightArm
					{
						OFFSET -19.027000 -4.857010 -1.718400
						CHANNELS 3 Xrotation Yrotation Zrotation
						JOINT RightForeArm
						{
							OFFSET -24.179897 0.000000 0.000000
							CHANNELS 3 Xrotation Yrotation Zrotation
							JOINT RightHand
							{
								OFFSET -27.156403 0.000000 0.000000
								CHANNELS 3 Xrotation Yrotation Zrotation
								JOINT RightHandThumb1
								{
									OFFSET -6.591202 -4.852203 5.988100
									CHANNELS 3 Xrotation Yrotation Zrotation
									JOINT RightHandThumb2
									{
										OFFSET -3.818176 -2.204422 2.204423
										CHANNELS 3 Xrotation Yrotation Zrotation
										JOINT RightHandThumb3
										{
											OFFSET -3.252098 -1.877594 1.877601
											CHANNELS 3 Xrotation Yrotation Zrotation
											JOINT RightHandThumb4
											{
												OFFSET -5.251778 -3.032120 3.032117
												CHANNELS 3 Xrotation Yrotation Zrotation
												End Site
												{
													OFFSET -0.000023 6.780014 0.000000
												}
											}
										}
									}
								}
								JOINT RightHandIndex1
								{
									OFFSET -16.029404 0.000000 0.000000
									CHANNELS 3 Xrotation Yrotation Zrotation
									JOINT RightHandIndex2
									{
										OFFSET -5.213303 0.000000 0.000000
										CHANNELS 3 Xrotation Yrotation Zrotation
										JOINT RightHandIndex3
										{
											OFFSET -6.386528 0.000000 0.000000
											CHANNELS 3 Xrotation Yrotation Zrotation
											JOINT RightHandIndex4
											{
												OFFSET -5.189026 0.000000 0.000000
												CHANNELS 3 Xrotation Yrotation Zrotation
												End Site
												{
													OFFSET 0.236702 5.183624 0.001972
												}
											}
										}
									}
								}
							}
						}
					}
				}
			}
		}
	}
	JOINT LeftUpLeg
	{
		OFFSET 14.073000 -7.904099 -1.463000
		CHANNELS 3 Xrotation Yrotation Zrotation
		JOINT LeftLeg
		{
			OFFSET -0.109806 -34.073280 4.093200
			CHANNELS 3 Xrotation Yrotation Zrotation
			JOINT LeftFoot
			{
				OFFSET 0.109806 -29.899420 -6.319000
				CHANNELS 3 Xrotation Yrotation Zrotation
				JOINT LeftToeBase
				{
					OFFSET 1.551100 -14.988700 20.535801
					CHANNELS 3 Xrotation Yrotation Zrotation
					JOINT LeftToe_End
					{
						OFFSET 0.221200 0.570800 13.248301
						CHANNELS 3 Xrotation Yrotation Zrotation
						End Site
						{
							OFFSET 0.000000 13.262435 0.000000
						}
					}
				}
			}
		}
	}
	JOINT RightUpLeg
	{
		OFFSET -13.839300 -7.904099 -1.463000
		CHANNELS 3 Xrotation Yrotation Zrotation
		JOINT RightLeg
		{
			OFFSET 0.109694 -34.073219 4.093300
			CHANNELS 3 Xrotation Yrotation Zrotation
			JOINT RightFoot
			{
				OFFSET -0.109694 -29.899384 -6.319200
				CHANNELS 3 Xrotation Yrotation Zrotation
				JOINT RightToeBase
				{
					OFFSET -1.551100 -14.988700 20.535801
					CHANNELS 3 Xrotation Yrotation Zrotation
					JOINT RightToe_End
					{
						OFFSET -0.221200 0.570900 13.248299
						CHANNELS 3 Xrotation Yrotation Zrotation
						End Site
						{
							OFFSET 0.000000 13.262440 0.000000
						}
					}
				}
			}
		}
	}
}
MOTION
Frames: 4
Frame Time: 0.033333
0.900463 50.683586 8.751877 -2.318012 3.678032 -3.171910 9.462775 1.071844 -3.065940 -1.679726 2.190753 -3.104177 -1.630302 2.239901 -3.068060 4.661373 -0.759842 -1.412336 -2.750216 -4.208228 -2.999928 -0.000000 -0.000000 -0.000001 33.739707 15.864595 -14.253921 44.650319 -25.971048 -20.161422 0.000033 -112.396842 0.000025 32.496824 -5.725490 42.071489 0.163319 -0.079953 -0.180834 0.418259 2.175719 -21.760947 0.090043 1.024259 -10.047400 -0.000002 -0.000002 -0.000002 29.217131 -50.347431 33.243750 -0.723900 18.563336 -33.203807 -12.179121 0.462934 -2.890547 -0.000001 0.000002 -0.000001 -8.064412 13.376669 -24.045823 -30.542553 -12.347533 22.280191 -0.000023 73.525135 0.000012 -61.692994 6.696678 -5.233096 -5.640721 17.533321 -14.539793 -2.433130 -9.153026 1.514554 -0.988892 -2.869070 -17.069759 -0.000001 0.000003 -0.000000 -0.324317 0.212707 7.683435 0.422176 -1.939290 24.560363 0.009670 -0.300374 3.689786 0.000004 0.000000 -0.000001 -89.364412 -8.063681 13.785929 82.285126 -0.282757 -0.372713 10.003103 -6.645082 -3.718968 -0.103117 0.000011 0.000001 0.000000 -0.000001 0.000000 -83.868692 9.117214 -11.706843 82.639033 -5.339051 -0.978668 7.352827 -0.139290 13.139360 -0.191638 -0.000008 0.000003 -0.000000 -0.000000 -0.000000 
0.923276 50.671890 8.771859 -2.197191 3.715376 -3.329792 9.357136 1.075511 -3.082374 -1.887496 2.222116 -3.088131 -1.838110 2.271535 -3.054320 4.043577 -0.817010 -1.279109 -3.678060 -4.417035 -2.739358 -0.000000 0.000000 -0.000002 33.490050 16.452778 -13.921133 44.954420 -26.391579 -20.374278 0.000029 -112.327918 0.000016 32.504614 -5.943693 41.578596 0.162414 -0.080893 -0.179842 0.418269 2.175723 -21.760950 0.090084 1.024553 -10.050502 0.000001 0.000001 0.000002 29.216383 -50.347575 33.242568 -0.724318 18.564114 -33.206341 -12.180967 0.466078 -2.892548 -0.000000 -0.000001 -0.000001 -6.781470 12.507721 -22.815671 -32.921297 -11.991596 21.120186 0.000195 78.476524 -0.000208 -60.308398 9.253832 -6.450394 -5.982284 17.109185 -14.481328 -1.830772 -9.839217 1.851143 -0.361603 -5.386247 -15.629991 0.000001 0.000002 -0.000001 -0.386225 0.433993 9.383968 0.479748 -2.060564 26.210065 0.023318 -0.465932 5.729272 -0.000000 0.000000 0.000001 -89.583805 -8.148414 13.798206 82.337719 -0.354310 -0.372951 10.035650 -6.639892 -3.643109 -0.103117 0.000010 0.000001 0.000000 -0.000001 -0.000000 -83.905978 9.076688 -11.656721 82.618767 -5.433300 -0.975287 7.333315 -0.136589 13.255713 -0.191638 -0.000009 0.000003 -0.000000 0.000001 0.000000 
0.942382 50.660431 8.793081 -2.075343 3.747041 -3.471782 9.216942 1.076963 -3.076371 -2.169281 2.255700 -3.021501 -2.120561 2.305639 -2.990475 3.358324 -0.911912 -1.188646 -4.504179 -4.837190 -2.585558 -0.000000 -0.000000 -0.000002 33.355505 17.021547 -13.836640 45.293208 -26.626345 -20.397779 0.000025 -112.336374 0.000028 32.405945 -6.163132 40.994819 0.161964 -0.082073 -0.178589 0.418248 2.175701 -21.760745 0.090151 1.024886 -10.053814 0.000002 -0.000000 -0.000002 29.215578 -50.347548 33.241783 -0.724535 18.564645 -33.209493 -12.182955 0.469969 -2.894885 0.000002 -0.000002 0.000000 -5.486438 11.728488 -21.544961 -35.412335 -11.672036 19.953457 0.000047 83.433431 -0.000011 -58.806604 11.592958 -7.738711 -6.455583 16.521471 -14.423876 -1.029567 -11.117046 2.265341 0.105562 -8.285615 -14.166343 -0.000001 -0.000003 0.000001 -0.129083 0.789063 11.160241 0.545755 -2.189477 27.990298 0.043988 -0.639260 7.872252 0.000000 -0.000001 0.000001 -89.793519 -8.229806 13.811840 82.387948 -0.420972 -0.373481 10.061998 -6.634604 -3.579199 -0.103117 0.000011 0.000001 -0.000000 -0.000000 -0.000000 -83.954766 9.040854 -11.606813 82.604287 -5.524601 -0.971967 7.313646 -0.131274 13.361227 -0.191638 -0.000008 0.000003 0.000000 -0.000001 -0.000000 
0.957758 50.651489 8.814452 -1.952637 3.771056 -3.596874 9.072639 1.093942 -3.029724 -2.464912 2.308088 -2.882963 -2.417732 2.358915 -2.854598 2.759074 -1.026780 -1.201455 -5.132122 -5.445729 -2.497549 -0.000000 0.000001 -0.000004 33.446982 17.345895 -14.150369 45.455793 -26.507254 -20.280899 0.000062 -112.423274 0.000058 32.239582 -6.419445 40.364236 0.161969 -0.083418 -0.177124 0.418233 2.175654 -21.760346 0.090209 1.025248 -10.057293 0.000004 0.000000 0.000002 29.214768 -50.347315 33.241438 -0.724526 18.564920 -33.213171 -12.185057 0.474457 -2.897557 0.000001 -0.000002 0.000001 -4.217274 11.028175 -20.206515 -37.887008 -11.351599 18.891130 -0.002355 88.218532 0.002450 -57.064591 13.647411 -9.066443 -7.091443 15.825864 -14.432109 -0.217668 -12.511910 2.818621 0.423019 -11.455646 -12.668080 -0.000001 -0.000000 -0.000000 0.331177 1.288230 12.809676 0.616310 -2.317246 29.784502 0.070426 -0.807722 9.966072 -0.000001 -0.000003 0.000001 -89.988972 -8.305556 13.827201 82.430910 -0.479982 -0.374180 10.082817 -6.630441 -3.527429 -0.103117 0.000011 0.000001 -0.000000 -0.000001 -0.000000 -84.013526 9.004759 -11.550970 82.588612 -5.554566 -0.970659 7.298362 -0.185800 13.455987 -0.191638 -0.000008 0.000003 -0.000000 -0.000001 0.000000 
